<svg xmlns="http://www.w3.org/2000/svg" width="19" height="18" viewBox="0 0 19 18">
  <g fill="none" fill-rule="evenodd" transform="translate(.217)">
    <rect width="18" height="18" fill="#5C1694"/>
    <path fill="#FFF" d="M7.4375,13.03125 L4.03125,9.625 C3.88541594,9.47916594 3.8125,9.33333406 3.8125,9.1875 C3.8125,8.93749875 3.86458281,8.78125031 3.96875,8.71875 C4.09375063,8.57291594 4.2395825,8.5 4.40625,8.5 C4.55208406,8.5 4.7083325,8.55208281 4.875,8.65625 L7.75,11.4375 L12.96875,3.03125 C13.0104169,2.96874969 13.1458322,2.86458406 13.375,2.71875 C13.4791672,2.67708312 13.6249991,2.70833281 13.8125,2.8125 C13.8958338,2.83333344 13.9999994,2.95833219 14.125,3.1875 C14.1875003,3.33333406 14.1562503,3.51041563 14.03125,3.71875 L8.4375,12.90625 C8.4375,12.9479169 8.40625031,12.96875 8.34375,12.96875 C8.30208313,12.96875 8.28125,12.9895831 8.28125,13.03125 C8.23958313,13.0937503 8.16666719,13.125 8.0625,13.125 L7.6875,13.125 C7.62499969,13.0624997 7.57291688,13.03125 7.53125,13.03125 C7.57291688,13.0937503 7.57291688,13.1145834 7.53125,13.09375 L7.4375,13.03125 Z"/>
  </g>
</svg>
