<svg xmlns="http://www.w3.org/2000/svg" width="60" height="60" viewBox="0 0 60 60">
  <g fill="#5C1694" transform="translate(.5)">
    <path d="M20.3705881,23.9109949 L21.7848017,25.3252085 L20.0864966,27.0235136 C19.5149837,27.5950265 19.4547864,28.5303453 19.9152546,29.1112728 L20.0142932,29.2225203 L28.8658186,38.0740458 L27.4516051,39.4882593 L18.599712,30.6363661 C17.2848799,29.3201658 17.2958168,27.1454084 18.5301102,25.7599123 L18.672283,25.6093 L20.3705881,23.9109949 Z"/>
    <path d="M19.5208646 19.4496C20.837617 18.1314775 22.9144226 18.113801 24.2908854 19.3440188L24.4408695 19.4858424 35.9476492 30.992622 34.5334356 32.4068356 23.0266559 20.9000559C22.4647055 20.3381055 21.6242248 20.2913187 21.0635837 20.7454595L20.9553521 20.8429625 20.9177898 20.8821185C20.3618427 21.4374876 20.3210498 22.324722 20.7976362 22.9124725L20.8998525 23.0258424 32.4066322 34.532622 30.9924186 35.9468356 19.4860068 24.4404235C18.1667257 23.1225138 18.1343632 20.9950276 19.3444705 19.6358037L19.5208646 19.4496zM20.3709949 30.9929271L21.7852085 32.4071407 20.0865356 34.1058134C19.5154547 34.6763006 19.4551054 35.6115796 19.9147782 36.1922162L20.0136492 36.3034017 30.6336831 46.9224186C31.2146969 47.5034324 31.9743562 47.916259 33.1673248 48.3489824L33.5429294 48.4811576 34.4369601 48.7791538C36.0514935 49.314919 36.8840776 49.6869504 37.5856782 50.3381011L37.7158522 50.4635709 40.3731404 53.121876 38.9586563 54.5358189 36.3015034 51.8776492C35.8963602 51.472506 35.303794 51.1853179 34.063821 50.763585L32.9938874 50.4070251C32.9255052 50.3838128 32.8607047 50.361595 32.7957444 50.3390907 31.2833036 49.8151345 30.2540433 49.3001565 29.3999536 48.5102445L29.2195033 48.3366661 18.5987341 37.716913C17.2850303 36.4004723 17.2964302 34.2256752 18.53054 32.8416722L18.6726898 32.6912322 20.3709949 30.9929271z"/>
    <path d="M25.7540746,18.5272036 C27.0697605,17.2128853 29.1097715,17.2237259 30.4865925,18.4576795 L31.7432215,19.7063837 L40.3730051,28.3370627 L38.9587915,29.7512763 L29.2228881,20.0143558 C28.6497366,19.4418 27.8410308,19.3836082 27.2774259,19.8428428 L27.1681154,19.9415897 L25.3254035,21.7853185 L23.9107999,20.3714951 L25.7540746,18.5272036 Z"/>
    <path d="M36.3035368,22.1402838 C37.7313885,20.7140714 39.6558144,20.5391601 41.2573441,22.1406898 L45.6810729,26.5644186 C47.407956,28.2913017 48.4337317,29.9666626 48.9211237,32.5486249 C49.3311819,34.7276943 49.7996309,35.9233672 50.833136,37.0221204 L50.992463,37.1863173 L53.6507681,39.8436054 L52.2368251,41.2580895 L49.5783847,38.6006661 C48.0892645,37.1115459 47.4538271,35.5659804 46.9557271,32.9190515 C46.5750522,30.902424 45.822355,29.5955786 44.5051975,28.2218982 L39.8431305,23.5549034 C39.1274644,22.8392373 38.489735,22.8538277 37.8335548,23.4445128 L37.7175472,23.5547002 L35.9480556,25.3252087 L34.5334359,23.9114015 L36.3035368,22.1402838 Z"/>
    <polygon points="37.366 54.713 53.828 38.252 58.961 43.384 57.547 44.798 53.828 41.08 40.194 54.713 43.913 58.432 42.499 59.846"/>
    <path d="M6.73734374 19.4855709L9.39449661 22.1437407C10.082025 22.8312691 10.4631132 23.6092098 10.9803447 25.1279788L11.4092839 26.408495C11.8463877 27.669263 12.2490528 28.4773777 12.8054245 29.0874684L12.9366321 29.2248593 16.4735813 32.7628254 15.0591645 34.1768356 11.5223169 30.6389712C10.6917717 29.8084259 10.156244 28.8248336 9.63191679 27.3803342L9.28997683 26.3820234 9.18096048 26.0519342C8.73996145 24.7240179 8.45041946 24.0738368 8.05971282 23.6415148L7.98014778 23.5578189 5.32285965 20.8995139 6.73734374 19.4855709zM20.0141915 6.20794407L22.6724966 8.86624915C23.7626313 9.95638387 24.9058986 10.4569907 26.9897744 10.8755345L27.3095213 10.937764C29.7682793 11.4010083 31.4063687 12.3538454 33.0484157 13.9351554L37.7172424 18.6004864 36.3030288 20.0147 31.8803169 15.5909712C30.4153131 14.1259674 29.0745596 13.3054947 26.9388536 12.9031152 24.4053838 12.4248045 22.8823632 11.823127 21.452739 10.4697346L21.258283 10.2804627 18.599978 7.62215763 20.0141915 6.20794407z"/>
    <polygon points="15.06 2.311 16.474 .897 21.607 6.03 5.146 22.492 .012 17.359 1.426 15.945 5.145 19.663 18.778 6.03"/>
    <path d="M26.4859355 47.2005097L27.2645052 49.0427445C27.0156735 49.1479064 26.757038 49.24812 26.4703825 49.3515741L25.6333684 49.63917 25.1666504 49.7935203C23.8369258 50.2351429 23.1861499 50.5249366 22.7531445 50.9162884L22.6693103 50.995988 20.0140561 53.6502253 18.6001134 52.2357408 21.2552322 49.581639C21.9004583 48.9364129 22.6249352 48.5609459 23.9657876 48.0898612L25.518774 47.5666879C25.7972244 47.4701829 26.0410322 47.3805004 26.2662794 47.2906605L26.4859355 47.2005097zM9.98479646 32.0124897L11.9459154 32.404934C11.4937908 34.6642872 10.8728144 36.1491757 9.59907469 37.5047886L9.39246271 37.7178525 6.73720848 40.3731068 5.32299491 38.9588932 7.97824915 36.303639C9.00538409 35.276504 9.52049744 34.1692401 9.91613787 32.3424616L9.98479646 32.0124897z"/>
    <polygon points=".012 42.499 5.146 37.368 21.608 53.828 16.474 58.961 15.06 57.547 18.779 53.828 5.145 40.195 1.426 43.914"/>
    <path d="M52.2366898 18.6000797L53.6509034 20.0142932 50.9953166 22.6698798C50.5897386 23.0750767 50.3022454 23.6681129 49.8797361 24.9099215L49.4580919 26.1692126C49.3510134 26.4784636 49.2500336 26.7531012 49.1468149 27.011693L49.0425411 27.2656238 47.2003063 26.4870541C47.2914263 26.271448 47.3800233 26.0425391 47.4732042 25.7839359L47.7873291 24.8636839 47.8952161 24.5369483C48.4319784 22.9200363 48.8043253 22.086932 49.4558873 21.3854738L49.5814356 21.2553339 52.2366898 18.6000797zM38.9587915 5.32309661L40.3730051 6.73731017 37.7174971 9.39281808C36.3719064 10.7374435 34.9311678 11.4030762 32.748318 11.8742475L32.397396 11.9470976 32.005587 9.98585159C33.9226161 9.60287608 35.0808416 9.12337485 36.1210633 8.1544905L36.3035373 7.97835085 38.9587915 5.32309661z"/>
    <polygon points="42.499 .012 43.913 1.426 40.195 5.144 53.828 18.778 57.547 15.06 58.961 16.474 53.828 21.607 37.367 5.145"/>
  </g>
</svg>
