<svg xmlns="http://www.w3.org/2000/svg" width="62" height="61" viewBox="0 0 62 61">
  <g fill="#5C1694" transform="translate(1 1)">
    <path d="M38.887,-1.0001 C39.3998358,-1.0001 39.8225072,-0.61405981 39.8802723,-0.116721125 L39.887,-0.0001 L39.887,2.848 L48.996,2.8489 C49.8252215,2.8489 50.2787151,3.78925216 49.8076924,4.43372176 L49.73768,4.51965389 L45.936,8.722 L49.7377485,12.9252218 C50.2938582,13.5402612 49.9005791,14.5072635 49.1066893,14.590188 L48.996,14.5959 L34.961,14.5959 C34.1042553,14.5959 33.6608026,13.6013386 34.1835989,12.9660952 L34.2609304,12.8818254 L37.887,9.325 L37.887,0.999 L30.228,0.999 L30.228,17.6719 C30.228,18.1847358 29.8419598,18.6074072 29.3446211,18.6651723 L29.228,18.6719 C28.7151642,18.6719 28.2924928,18.2858598 28.2347277,17.7885211 L28.228,17.6719 L28.228,-0.0001 C28.228,-0.512935839 28.6140402,-0.935607161 29.1113789,-0.993372269 L29.228,-1.0001 L38.887,-1.0001 Z M46.744,4.848 L39.887,4.848 L39.887,9.7469 C39.887,9.97077489 39.8119345,10.1868034 39.6758964,10.3614331 L39.5870696,10.4609746 L37.409,12.595 L46.743,12.595 L43.8472515,9.39257818 C43.5315867,9.04346309 43.5053062,8.5272094 43.7683943,8.15026495 L43.84732,8.05114611 L46.744,4.848 Z"/>
    <polygon points="38.82 8.724 38.82 10.724 29.567 10.724 29.567 8.724"/>
    <path d="M31.0186522,25.7457548 C31.283801,25.4295597 31.7123216,25.3117727 32.0966618,25.4380916 L32.2104309,25.4833561 L37.4504309,27.9473561 C37.9502176,28.1823703 38.1648581,28.7780442 37.9298439,29.2778309 C37.7116164,29.7419185 37.182412,29.9601404 36.7077676,29.8007816 L36.5993691,29.7572439 L32.056,27.621 L30.0111478,30.0598452 C29.6383644,30.5043968 28.9753446,30.5343426 28.5634881,30.1494204 L28.4792748,30.0605869 L26.429,27.62 L21.8779658,29.7574625 C21.4137661,29.9754514 20.8670874,29.8056855 20.6033989,29.3800671 L20.5477375,29.2773658 C20.3297486,28.8131661 20.4995145,28.2664874 20.9251329,28.0027989 L21.0278342,27.9471375 L26.2748342,25.4831375 C26.6478994,25.3079455 27.0856769,25.3808428 27.3813073,25.6563335 L27.4655252,25.7450131 L29.243,27.861 L31.0186522,25.7457548 Z"/>
    <path d="M28.4409152,17.0187609 C28.813499,16.5262852 29.5285894,16.4921741 29.9484288,16.9176098 L30.0336428,17.0158089 L41.3796428,31.8978089 L39.7891572,33.1103911 L29.241,19.275 L16.3248848,36.3484391 L14.7299152,35.1417609 L28.4409152,17.0187609 Z"/>
    <g transform="translate(0 34.474)">
      <path d="M45.0371,-0.6307 C48.7762033,-0.6307 51.8071,2.39983383 51.8071,6.1383 C51.8071,7.31892828 51.5007534,8.45807066 50.9280628,9.46841734 C50.6557216,9.94888453 50.0454498,10.117604 49.5649827,9.84526281 C49.0845155,9.57292162 48.915796,8.96264985 49.1881372,8.48218266 C49.5919846,7.76971081 49.8071,6.96980955 49.8071,6.1383 C49.8071,3.50445694 47.6716874,1.3693 45.0371,1.3693 C42.4033847,1.3693 40.2681,3.50458475 40.2681,6.1383 C40.2681,6.3897845 40.2932205,6.65273907 40.3428993,6.94437205 C40.4903447,7.80993103 39.5406911,8.41299703 38.8285766,7.96183177 L38.7371489,7.89694043 C38.0577117,7.36011127 37.2248829,7.0643 36.3451,7.0643 C34.3410494,7.0643 32.674464,8.59524996 32.4929371,10.5784512 C32.4173735,11.403992 31.4278626,11.7843866 30.8187613,11.2220494 C29.3924939,9.90528424 27.5334819,9.1633 25.5531,9.1633 C23.4477861,9.1633 21.4774099,10.0049144 20.0256123,11.4749736 C19.4203896,12.0878092 18.3751696,11.6998083 18.3164283,10.8404997 C18.1140521,7.88000041 15.6472258,5.5663 12.6631,5.5663 C9.53301618,5.5663 6.9951,8.10395329 6.9951,11.2343 C6.9951,12.2580693 7.26728427,13.2404031 7.77685551,14.1059762 C8.27452415,14.9513311 7.3841717,15.9332511 6.49428819,15.520448 C5.98199706,15.2828041 5.43345734,15.1583 4.8701,15.1583 C2.73300761,15.1583 1.0001,16.8909618 1.0001,19.0283 C1.0001,21.1594844 2.85183777,22.9993 4.9951,22.9993 C5.54738475,22.9993 5.9951,23.4470153 5.9951,23.9993 C5.9951,24.5515847 5.54738475,24.9993 4.9951,24.9993 C1.75014977,24.9993 -0.9999,22.266956 -0.9999,19.0283 C-0.9999,15.7863288 1.62850161,13.1583 4.8701,13.1583 L5.03074686,13.1605163 L5.244,13.171 L5.22615722,13.1063397 C5.09913313,12.6014733 5.02335946,12.0814788 5.00163001,11.5526251 L4.9951,11.2343 C4.9951,6.99933741 8.42849305,3.5663 12.6631,3.5663 C16.0277675,3.5663 18.9059752,5.73987758 19.9304633,8.78376029 L19.972,8.915 L20.0858927,8.83647651 C21.5886602,7.81923139 23.3594622,7.23101714 25.223264,7.16879965 L25.5531,7.1633 C27.3557092,7.1633 29.0814908,7.65384453 30.5770778,8.55322414 L30.896,8.754 L30.9400796,8.64479457 C31.806427,6.59944761 33.7942779,5.15961598 36.1122334,5.06885197 L36.3451,5.0643 C37.0124813,5.0643 37.6632813,5.17693361 38.2758298,5.39117035 L38.307,5.403 L38.3325232,5.20065137 C38.7784736,1.98271805 41.4867205,-0.512299459 44.7994694,-0.62660642 L45.0371,-0.6307 Z"/>
      <path d="M51.7472,22.9997 C52.2994847,22.9997 52.7472,23.4474153 52.7472,23.9997 C52.7472,24.5125358 52.3611598,24.9352072 51.8638211,24.9929723 L51.7472,24.9997 L5.0132,24.9997 C4.46091525,24.9997 4.0132,24.5519847 4.0132,23.9997 C4.0132,23.4868642 4.39924019,23.0641928 4.89657887,23.0064277 L5.0132,22.9997 L51.7472,22.9997 Z"/>
      <path d="M51.937,7.8737 C56.6622847,7.8737 60.493,11.7044153 60.493,16.4297 C60.493,21.1548349 56.6624346,24.9847 51.937,24.9847 C51.3847153,24.9847 50.937,24.5369847 50.937,23.9847 C50.937,23.4324153 51.3847153,22.9847 51.937,22.9847 C55.557947,22.9847 58.493,20.0501836 58.493,16.4297 C58.493,12.8089847 55.5577153,9.8737 51.937,9.8737 C51.4719113,9.8737 51.0117903,9.92267219 50.5616141,10.018698 C50.0214807,10.1339124 49.4902163,9.78944747 49.375002,9.24931406 C49.2597876,8.70918066 49.6042525,8.17791632 50.1443859,8.06270196 C50.7310903,7.93755366 51.331031,7.8737 51.937,7.8737 Z"/>
    </g>
  </g>
</svg>
