<svg xmlns="http://www.w3.org/2000/svg" width="62" height="62" viewBox="0 0 62 62">
  <g fill="#5C1694">
    <path d="M11.2367085,27.6063516 C14.2398985,26.9756041 17,29.2450346 17,32.25 C17,33.2049894 16.6759107,34.1340261 15.9922984,35.2339131 C15.6925052,35.7162157 15.6720089,36.3020267 15.9279994,36.761573 C16.1615126,37.1815753 16.5832337,37.4482073 17.0941487,37.4932148 L17.25,37.5 L23.5,37.5 L23.5,39.5 L17.25,39.5 C15.9532993,39.5 14.7947564,38.839141 14.180398,37.7341411 C13.5669175,36.6328412 13.6145777,35.2706509 14.2936796,34.1781223 C14.7960467,33.3698468 15,32.7851929 15,32.25 C15,30.5089594 13.4021734,29.1951829 11.6478189,29.5636427 C10.6210999,29.7793102 9.77318932,30.6744212 9.55022134,31.7733886 C9.40440529,32.490957 9.56793597,33.1510033 10.2062984,34.1780869 C10.8854223,35.2706509 10.9330825,36.6328412 10.3199994,37.733427 C9.73939666,38.7777125 8.67374932,39.4251982 7.46476799,39.493918 L7.25,39.5 L1,39.5 L1,37.5 L7.25,37.5 C7.83054005,37.5 8.31513604,37.2235755 8.57239801,36.7608589 C8.82799109,36.3020267 8.80749479,35.7162157 8.50767947,35.2338775 C7.61958757,33.8049954 7.3322106,32.6450779 7.59021751,31.3754126 C7.96831592,29.511836 9.40980729,27.9901015 11.2367085,27.6063516 Z"/>
    <path d="M24.5,38.5 L24.5,44.75 C24.5,46.0467007 23.839141,47.2052436 22.7341411,47.819602 C21.6328412,48.4330825 20.2706509,48.3854223 19.1781225,47.7063205 C18.1510033,47.067936 17.490957,46.9044053 16.7730874,47.0502825 C15.6744212,47.2731893 14.7793102,48.1210999 14.5636484,49.1477915 C14.1951829,50.9021734 15.5089594,52.5 17.25,52.5 C17.7851929,52.5 18.3698468,52.2960467 19.1780869,51.7937016 C20.2706509,51.1145777 21.6328412,51.0669175 22.733427,51.6800006 C23.7777125,52.2606033 24.4251982,53.3262507 24.493918,54.535232 L24.5,54.75 L24.5,61 L22.5,61 L22.5,54.75 C22.5,54.16946 22.2235755,53.684864 21.7608589,53.427602 C21.3020267,53.1720089 20.7162157,53.1925052 20.2338777,53.4923204 C19.1340261,54.1759107 18.2049894,54.5 17.25,54.5 C14.2450346,54.5 11.9756041,51.7398985 12.6063573,48.7366811 C12.9901015,46.9098073 14.511836,45.4683159 16.3751114,45.0902787 C17.6450779,44.8322106 18.8049954,45.1195876 20.2339131,46.0077016 C20.7162157,46.3074948 21.3020267,46.3279911 21.761573,46.0720006 C22.1815753,45.8384874 22.4482073,45.4167663 22.4932148,44.9058513 L22.5,44.75 L22.5,38.5 L24.5,38.5 Z"/>
    <path d="M23.5 15L3.5 15C1.56721525 15 0 16.5672153 0 18.5L0 58.5C0 60.4327847 1.56721525 62 3.5 62L43.5 62C45.4327847 62 47 60.4327847 47 58.5L47 38.5C47 37.9477153 46.5522847 37.5 46 37.5L39.75 37.5C38.4532993 37.5 37.2947564 38.160859 36.6800006 39.266573 36.0669175 40.3671588 36.1145777 41.7293491 36.7937016 42.8219131 37.2960467 43.6301532 37.5 44.2148071 37.5 44.75 37.5 46.4910406 35.9021734 47.8048171 34.1477915 47.4363516 33.1210999 47.2206898 32.2731893 46.3255788 32.0502825 45.2269126 31.9044053 44.509043 32.067936 43.8489967 32.7063205 42.8218775 33.3854223 41.7293491 33.4330825 40.3671588 32.819602 39.2658589L32.7122398 39.0858418C32.0760902 38.0894699 30.9746618 37.5 29.75 37.5L24.5 37.5 24.5 32.25C24.5 31.66946 24.7764245 31.184864 25.238427 30.9279994 25.6979733 30.6720089 26.2837843 30.6925052 26.7660869 30.9922984 27.8659739 31.6759107 28.7950106 32 29.75 32 32.7549654 32 35.0243959 29.2398985 34.3936484 26.2367085 34.0098985 24.4098073 32.488164 22.9683159 30.6245874 22.5902175 29.3549221 22.3322106 28.1950046 22.6195876 26.7661225 23.5076795 26.2837843 23.8074948 25.6979733 23.8279911 25.2391411 23.572398 24.7764245 23.315136 24.5 22.83054 24.5 22.25L24.5 16C24.5 15.4477153 24.0522847 15 23.5 15zM3.5 17L22.5 17 22.5 22.25C22.5 23.5467007 23.160859 24.7052436 24.266573 25.3199994 25.3671588 25.9330825 26.7293491 25.8854223 27.8219131 25.2062984 28.8489967 24.567936 29.509043 24.4044053 30.2266114 24.5502213 31.3255788 24.7731893 32.2206898 25.6210999 32.4363573 26.6478189 32.8048171 28.4021734 31.4910406 30 29.75 30 29.2148071 30 28.6301532 29.7960467 27.8218777 29.2936796 26.7293491 28.6145777 25.3671588 28.5669175 24.2658589 29.180398 23.160859 29.7947564 22.5 30.9532993 22.5 32.25L22.5 38.5C22.5 39.0522847 22.9477153 39.5 23.5 39.5L29.75 39.5C30.33054 39.5 30.815136 39.7764245 31.0720006 40.238427 31.3279911 40.6979733 31.3074948 41.2837843 31.0077016 41.7660869 30.1195876 43.1950046 29.8322106 44.3549221 30.0902787 45.6248886 30.4683159 47.488164 31.9098073 49.0098985 33.7366811 49.3936427 36.7398985 50.0243959 39.5 47.7549654 39.5 44.75 39.5 43.7950106 39.1759107 42.8659739 38.4923204 41.7661223 38.1925052 41.2837843 38.1720089 40.6979733 38.427602 40.2391411L38.503302 40.1176322C38.7737653 39.72845 39.2222363 39.5 39.75 39.5L45 39.5 45 58.5C45 59.3282153 44.3282153 60 43.5 60L3.5 60C2.67178475 60 2 59.3282153 2 58.5L2 18.5C2 17.6717847 2.67178475 17 3.5 17zM58.5 0L38.5 0C37.9477153 0 37.5.44771525 37.5 1L37.5 7.25C37.5 8.54670069 38.160859 9.70524355 39.266573 10.3199994 40.3671588 10.9330825 41.7293491 10.8854223 42.8219131 10.2062984 43.8489775 9.56794792 44.5091175 9.40435316 45.2268511 9.55002002 46.3255594 9.7731243 47.2206915 10.6211079 47.4363573 11.6478189 47.8048171 13.4021734 46.4910406 15 44.75 15 44.2148071 15 43.6301532 14.7960467 42.8218777 14.2936796 41.7293491 13.6145777 40.3671588 13.5669175 39.2658589 14.180398 38.160859 14.7947564 37.5 15.9532993 37.5 17.25L37.5 23.5C37.5 24.0522847 37.9477153 24.5 38.5 24.5L44.75 24.5C45.33054 24.5 45.815136 24.7764245 46.0720006 25.238427 46.3279911 25.6979733 46.3074948 26.2837843 46.0077016 26.7660869 45.119672 28.1948687 44.8322415 29.3547127 45.08998 30.6246489 45.4684118 32.4882895 46.9098911 34.0099161 48.7366811 34.3936427 51.7398985 35.0243959 54.5 32.7549654 54.5 29.75 54.5 28.7950106 54.1759107 27.8659739 53.4923204 26.7661223 53.1925052 26.2837843 53.1720089 25.6979733 53.427602 25.2391411 53.684864 24.7764245 54.16946 24.5 54.75 24.5L61 24.5C61.5522847 24.5 62 24.0522847 62 23.5L62 3.5C62 1.56721525 60.4327847 0 58.5 0zM39.5 2L58.5 2 58.6444269 2.00686865C59.4049242 2.07957478 60 2.72050329 60 3.5L60 22.5 54.75 22.5C53.4532993 22.5 52.2947564 23.160859 51.6800006 24.266573 51.0669175 25.3671588 51.1145777 26.7293491 51.7937016 27.8219131 52.2960467 28.6301532 52.5 29.2148071 52.5 29.75 52.5 31.4910406 50.9021734 32.8048171 49.1477915 32.4363516 48.1211079 32.2206915 47.2731243 31.3255594 47.0499996 30.2267508 46.9043532 29.5091175 47.0679479 28.8489775 47.7063205 27.8218775 48.3854223 26.7293491 48.4330825 25.3671588 47.819602 24.2658589L47.7122398 24.0858418C47.0760902 23.0894699 45.9746618 22.5 44.75 22.5L39.5 22.5 39.5 17.25C39.5 16.66946 39.7764245 16.184864 40.238427 15.9279994 40.6979733 15.6720089 41.2837843 15.6925052 41.7660869 15.9922984 42.8659739 16.6759107 43.7950106 17 44.75 17 47.7549654 17 50.0243959 14.2398985 49.3936484 11.2367085 49.0099161 9.40989111 47.4882895 7.96841182 45.6247492 7.59000036 44.3547127 7.33224147 43.1948687 7.61967201 41.7661225 8.50767947 41.2837843 8.80749479 40.6979733 8.82799109 40.2391411 8.57239801 39.7764245 8.31513604 39.5 7.83054005 39.5 7.25L39.5 2z"/>
  </g>
</svg>
