<svg xmlns="http://www.w3.org/2000/svg" width="57" height="61" viewBox="0 0 57 61">
  <g fill="#5C1694" transform="translate(1.5 1)">
    <path d="M27.1436897 41.8734138C32.5950337 41.8734138 38.6586605 44.0804971 38.8697414 47.7270357L38.8754138 47.9237586 38.8754138 51.7637586 36.8754138 51.7637586 36.8754138 47.9237586C36.8754138 45.8069588 31.6470768 43.8734138 27.1436897 43.8734138 22.7294854 43.8734138 17.6177485 45.731936 17.4189853 47.799469L17.413 47.9237586 17.413 51.7637586 15.413 51.7637586 15.413 47.9237586C15.413 44.160117 21.5959252 41.8734138 27.1436897 41.8734138zM27.1446207 26.7759655C23.9797162 26.7759655 21.7263448 29.3378836 21.7263448 32.6297586L21.7263448 34.2497586C21.7263448 37.5409413 23.9799934 40.1035517 27.1446207 40.1035517 30.3085286 40.1035517 32.5628966 37.5405524 32.5628966 34.2497586L32.5628966 32.6297586C32.5628966 29.3382724 30.3088059 26.7759655 27.1446207 26.7759655zM27.1446207 28.7759655C29.1431314 28.7759655 30.5628966 30.3898643 30.5628966 32.6297586L30.5628966 34.2497586C30.5628966 36.4890159 29.14278 38.1035517 27.1446207 38.1035517 25.1458262 38.1035517 23.7263448 36.4894678 23.7263448 34.2497586L23.7263448 32.6297586C23.7263448 30.3894124 25.145475 28.7759655 27.1446207 28.7759655zM8.20675862 29.2492069C5.0411292 29.2492069 2.78848276 31.8185964 2.78848276 35.1185172L2.78848276 36.7416207C2.78848276 40.0415415 5.0411292 42.610931 8.20675862 42.610931 11.3716686 42.610931 13.6250345 40.0411511 13.6250345 36.7416207L13.6250345 35.1185172C13.6250345 31.8189868 11.3716686 29.2492069 8.20675862 29.2492069zM8.20675862 31.2492069C10.204365 31.2492069 11.6250345 32.8693646 11.6250345 35.1185172L11.6250345 36.7416207C11.6250345 38.9907734 10.204365 40.610931 8.20675862 40.610931 6.2085173 40.610931 4.78848276 38.9912264 4.78848276 36.7416207L4.78848276 35.1185172C4.78848276 32.8689115 6.2085173 31.2492069 8.20675862 31.2492069zM46.0825862 29.2492069C42.9168438 29.2492069 40.6632759 31.8187873 40.6632759 35.1185172L40.6632759 36.7416207C40.6632759 40.0413507 42.9168438 42.610931 46.0825862 42.610931 49.2474962 42.610931 51.5008621 40.0411511 51.5008621 36.7416207L51.5008621 35.1185172C51.5008621 31.8189868 49.2474962 29.2492069 46.0825862 29.2492069zM46.0825862 31.2492069C48.0801926 31.2492069 49.5008621 32.8693646 49.5008621 35.1185172L49.5008621 36.7416207C49.5008621 38.9907734 48.0801926 40.610931 46.0825862 40.610931 44.0840631 40.610931 42.6632759 38.9909102 42.6632759 36.7416207L42.6632759 35.1185172C42.6632759 32.8692277 44.0840631 31.2492069 46.0825862 31.2492069z"/>
    <path d="M47.127 46.45L40.8150547 52.764069 33.815 52.764 33.8182056 52.8150534C33.8409264 53.1064356 33.8858172 53.4048828 33.9580819 53.6964538L34.039664 53.9852163C34.399891 55.1139891 35.1011729 55.7489443 36.4029756 55.8096179L36.6135517 55.8144138 43.772 55.814 48.5293971 51.031946 49.9473615 52.4423988 44.6038046 57.8144138 36.6135517 57.8144138C34.2422012 57.8144138 32.7624773 56.5615501 32.134336 54.5932665 31.8674234 53.7568948 31.7814797 52.9053094 31.8024807 52.1360312L31.8208415 51.7700367 31.8314718 51.6529225 31.9308807 50.764069 39.986 50.764 46.2989453 44.4506207 50.5014828 44.4506207C53.0716122 44.4506207 55.1723771 46.443654 55.2840546 48.9740582L55.2887241 49.1861379 55.2887241 59.3385517 53.2887241 59.3385517 53.2887241 49.1861379C53.2887241 47.725276 52.1371462 46.5412872 50.6718946 46.4555882L50.5014828 46.4506207 47.127 46.45zM3.76406897 44.4506207L7.9655719 44.4506207 14.277 50.764 22.3336366 50.764069 22.4330454 51.6529225C22.4378141 51.6955611 22.4437478 51.7626582 22.4492927 51.8516005 22.5016959 52.6921754 22.4304579 53.6523483 22.1301813 54.5932665 21.5244736 56.4912543 20.1269244 57.724011 17.9016288 57.8096442L17.6509655 57.8144138 9.66005107 57.8144138 4.32774012 52.4415987 5.74729436 51.0327461 10.493 55.814 17.6509655 55.8144138C19.0166997 55.8144138 19.768257 55.2358972 20.1651032 54.1593281L20.2248532 53.9852163C20.3463095 53.6046326 20.4160172 53.203563 20.4463117 52.8150534L20.449 52.764 13.4494626 52.764069 7.137 46.45 3.76406897 46.4506207C2.28193015 46.4506207 1.09078249 47.5747865 1.00458244 49.0182172L.999586207 49.1861379.999586207 59.3385517-1.00041379 59.3385517-1.00041379 49.1861379C-1.00041379 46.6266655 1.00867036 44.5678581 3.54537919 44.4554548L3.76406897 44.4506207z"/>
    <polygon points="46.451 55.551 46.451 59.338 44.451 59.338 44.451 55.551"/>
    <polygon points="9.838 55.551 9.838 59.338 7.838 59.338 7.838 55.551"/>
    <polygon points="36.614 55.814 36.614 57.814 17.676 57.814 17.676 55.814"/>
    <path d="M44.187931,-0.999689655 L11.3627586,-0.999689655 C9.41628495,-0.999689655 7.83862069,0.578421287 7.83862069,2.52444828 L7.83862069,20.2006552 L7.84383408,20.3940658 C7.9441937,22.250962 9.48095154,23.7258276 11.3627586,23.7258276 L31.102,23.725 L36.1572685,29.6227948 L36.2620542,29.7376279 C37.6531154,31.168598 40.1386207,30.1983232 40.1386207,28.1496207 L40.138,23.725 L44.187931,23.7258276 C46.1346985,23.7258276 47.7131034,22.1474227 47.7131034,20.2006552 L47.7131034,2.52444828 C47.7131034,0.578491914 46.1344752,-0.999689655 44.187931,-0.999689655 Z M11.3627586,1.00031034 L44.187931,1.00031034 C45.0300324,1.00031034 45.7131034,1.68318814 45.7131034,2.52444828 L45.7131034,20.2006552 C45.7131034,21.0428532 45.030129,21.7258276 44.187931,21.7258276 L38.1386207,21.7258276 L38.1386207,28.1496207 C38.1386207,28.3938278 37.8344104,28.5063147 37.6758706,28.3213158 L32.0230632,21.7258276 L11.3627586,21.7258276 C10.5208847,21.7258276 9.83862069,21.0431773 9.83862069,20.2006552 L9.83862069,2.52444828 C9.83862069,1.68286406 10.5209812,1.00031034 11.3627586,1.00031034 Z"/>
  </g>
</svg>
