<svg xmlns="http://www.w3.org/2000/svg" xmlns:xlink="http://www.w3.org/1999/xlink" width="198" height="82" viewBox="0 0 198 82">
  <defs>
    <polygon id="simplefly-wordpress-logo-a" points="0 57.852 197.821 57.852 197.821 0 0 0"/>
  </defs>
  <g fill="none" fill-rule="evenodd">
    <path fill="#FFF" d="M3.1884058e-05,43.3996791 L3.29652464,43.3996791 L3.29652464,44.6791846 C3.29652464,46.3439758 5.62246667,47.1212396 7.79249565,47.1212396 C10.0020609,47.1212396 11.7483507,46.2276571 11.7483507,44.600789 C11.7483507,42.6252835 9.57608986,42.0051297 6.86211884,41.0347451 C3.95365507,39.9502725 0.736553623,38.6334813 0.736553623,35.0668 C0.736553623,31.1932286 4.57443768,29.644756 7.9853942,29.644756 C10.7404957,29.644756 14.7715971,30.7282725 14.7715971,33.5964044 L14.7715971,35.9591077 L11.4760609,35.9591077 L11.4760609,34.6808769 C11.4760609,33.4781736 9.92362609,32.6642615 8.02461159,32.6642615 C6.16481449,32.6642615 4.5384087,33.4399319 4.5384087,35.0291956 C4.5384087,36.8880637 6.70652464,37.6634154 9.07168406,38.4792396 C12.095887,39.4853165 15.5470174,40.7638659 15.5470174,44.4070308 C15.5470174,48.1257231 12.1360609,50.1812176 7.67516232,50.1812176 C4.10924928,50.1812176 3.1884058e-05,48.5906791 3.1884058e-05,45.4937341 L3.1884058e-05,43.3996791 Z"/>
    <mask id="simplefly-wordpress-logo-b" fill="#fff">
      <use xlink:href="#simplefly-wordpress-logo-a"/>
    </mask>
    <path fill="#FFF" d="M19.3431014 26.1930549L23.2976812 26.1930549 23.2976812 22.3586813 19.3431014 22.3586813 19.3431014 26.1930549zM19.4224928 46.8110989L19.4224928 33.0131538 19.4224928 30.1086923 23.1809855 30.1086923 23.1809855 46.8110989 23.1809855 49.7161978 19.4224928 49.7161978 19.4224928 46.8110989zM30.1729681 46.8111945L30.1729681 33.8255681C30.1729681 33.2850846 29.8646493 33.0132495 29.3210261 33.0132495L26.9166493 33.0132495 26.9166493 30.1087879 31.3354609 30.1087879C33.0023594 30.1087879 33.819229 30.8430297 33.819229 32.2780516L33.819229 33.2850846C33.819229 33.9055571 33.7038087 34.409711 33.7038087 34.409711L33.7777797 34.409711C34.7483304 32.0852495 37.5777217 29.6447879 40.7578377 29.6447879 43.8965043 29.6447879 45.8356928 31.0788538 46.4947362 34.2545132L46.5722145 34.2545132C47.6569101 31.8140516 50.3721565 29.6447879 53.5898957 29.6447879 57.9315478 29.6447879 59.987113 32.1633264 59.987113 37.1592934L59.987113 46.8111945 59.987113 49.7162934 56.2244754 49.7162934 56.2244754 37.9741615C56.2244754 35.2255352 55.723258 33.0521286 52.775258 33.0521286 49.0929681 33.0521286 46.9988232 36.8132055 46.9988232 40.6864582L46.9988232 46.8111945 46.9988232 49.7162934 43.2374609 49.7162934 43.2374609 37.9741615C43.2374609 35.4170626 42.8507072 33.0521286 39.8261855 33.0521286 36.1059536 33.0521286 33.9333739 37.004733 33.9333739 40.8419747L33.9333739 46.8111945 33.9333739 49.7162934 30.1729681 49.7162934 30.1729681 46.8111945zM76.088658 46.9277363C79.1903391 46.9277363 81.7471217 44.406967 81.7471217 39.9502088 81.7471217 35.6894396 79.4603971 32.9353956 76.1670928 32.9353956 73.2573536 32.9353956 70.5433826 34.9905714 70.5433826 39.9903626 70.5433826 43.4770549 72.4423971 46.9277363 76.088658 46.9277363zM66.8623681 54.5595165L66.8623681 33.8684945C66.8623681 33.284989 66.5518174 33.0131538 66.0094696 33.0131538L63.6050928 33.0131538 63.6050928 30.1086923 67.9451507 30.1086923C69.6936725 30.1086923 70.3536725 30.8818132 70.3536725 32.045956L70.3536725 32.1995604C70.3536725 32.820033 70.2742812 33.3245055 70.2742812 33.3245055L70.3536725 33.3245055C70.3536725 33.3245055 71.9784841 29.6446923 76.942513 29.6446923 82.214542 29.6446923 85.5470638 33.8254725 85.5470638 39.9129231 85.5470638 46.1491978 81.786658 50.1811538 76.6692667 50.1811538 72.3652377 50.1811538 70.5838754 46.8480659 70.5838754 46.8480659L70.5063971 46.8480659C70.5063971 46.8480659 70.6227739 47.5462967 70.6227739 48.5510989L70.6227739 54.5595165 70.6227739 57.4655714 66.8623681 57.4655714 66.8623681 54.5595165zM90.1427043 25.2640989L90.1427043 22.3586813 93.9024725 22.3586813 93.9024725 43.9018571C93.9024725 45.5698352 94.2920957 46.6915934 95.9982116 46.6915934 96.6180377 46.6915934 97.0430522 46.6552637 97.0430522 46.6552637L97.0038348 49.7534835C97.0038348 49.7534835 96.229371 49.8318791 95.3372551 49.8318791 92.5448493 49.8318791 90.1427043 48.7088462 90.1427043 44.1348132L90.1427043 25.2640989zM113.412009 37.8584165C113.2934 34.4099659 111.199574 32.6272626 108.719951 32.6272626 105.850386 32.6272626 103.526675 34.5635703 102.983052 37.8584165L113.412009 37.8584165zM108.79711 29.6447242C114.382559 29.6447242 117.290386 33.750933 117.290386 38.8294385 117.290386 39.3307242 117.17369 40.2606363 117.17369 40.2606363L102.827139 40.2606363C103.06053 44.6007571 106.122038 46.9277681 109.610791 46.9277681 113.026212 46.9277681 115.466617 44.7164385 115.466617 44.7164385L117.01682 47.4685703C117.01682 47.4685703 114.069458 50.1811857 109.379951 50.1811857 103.214212 50.1811857 98.9902116 45.7221967 98.9902116 39.9129549 98.9902116 33.6738121 103.214212 29.6447242 108.79711 29.6447242zM123.508414 46.8111945L123.508414 33.0132495 120.254009 33.0132495 120.254009 30.1087879 123.508414 30.1087879 123.508414 29.5262385C123.508414 23.4422934 128.242878 21.7392604 132.622154 21.7392604 136.730733 21.7392604 139.873226 22.7067769 139.873226 22.7067769L139.873226 43.9019527C139.873226 45.5699308 140.18282 46.691689 142.083748 46.691689 142.54798 46.691689 142.974907 46.6553593 142.974907 46.6553593L142.974907 49.7535791C142.974907 49.7535791 142.199168 49.8319747 141.309284 49.8319747 138.476704 49.8319747 136.113458 48.7089418 136.113458 44.1349088L136.113458 25.1083593C136.113458 25.1083593 134.870936 24.7227549 132.505777 24.7227549 129.831023 24.7227549 127.272009 25.8454692 127.272009 29.4089637L127.272009 30.1087879 132.001371 30.1087879 132.001371 33.0132495 127.272009 33.0132495 127.272009 46.8111945 127.272009 49.7162934 123.508414 49.7162934 123.508414 46.8111945zM147.835568 54.7131846C149.502467 54.7131846 150.781655 53.5512725 151.439742 52.0028L152.255336 50.066811 144.28751 30.108756 148.1678 30.108756 153.649945 44.6791846C153.922235 45.5307011 153.9978 46.3841297 153.9978 46.3841297L154.117046 46.3841297C154.117046 46.3841297 154.27009 45.5307011 154.580322 44.6791846L159.979887 30.108756 163.702351 30.108756 154.891829 52.8151187C153.573742 56.1472505 151.012814 57.8525143 147.989249 57.8525143 145.468496 57.8525143 143.766525 56.6131626 143.766525 56.6131626L145.042525 53.7845473C145.042525 53.7845473 146.168032 54.7131846 147.835568 54.7131846M186.144104 30.1182527C185.716858 30.1513956 185.265699 30.1676484 184.803061 30.1676484 180.786945 30.1676484 176.389177 28.9502857 173.691786 28.0528791 173.791583 27.9193516 173.892017 27.782956 173.994684 27.6443297 174.860017 26.4696703 175.688684 25.2895934 176.456452 24.1366044 177.531583 22.5228022 178.486191 20.9612637 179.297322 19.4915055 181.689583 18.8133516 183.815612 18.3993846 185.619612 18.2607582 186.16993 18.2186923 186.724394 18.197022 187.268017 18.197022 191.96709 18.197022 195.905728 19.8436484 196.445843 22.0301209L196.50451 22.3666484C196.509293 22.4322967 196.520771 22.5973736 196.522365 22.6875604 196.586452 26.4027473 192.027988 29.667 186.144104 30.1182527M173.158365 20.1922857C171.847293 20.6961209 170.490626 21.2547692 169.126626 21.8529341 168.952858 21.9290989 168.782916 22.0043077 168.614568 22.0788791 168.197525 18.9408242 167.830858 13.8518022 169.01822 9.81920879 170.471814 4.88156044 174.066423 1.29735165 177.56538 1.29735165 177.910365 1.29735165 178.253119 1.33336264 178.583438 1.40474725 178.67909 1.42546154 178.850626 1.47167033 178.911843 1.48856044L179.238655 1.61157143C181.622307 2.69221978 182.359786 7.64484615 180.881003 12.6688571 180.386481 14.347989 179.558133 16.2737802 178.417003 18.3958791 176.764133 18.8825055 174.9968 19.4860879 173.158365 20.1922857M197.778278 22.1760769L197.788481 22.1744835 197.721206 21.7866484 197.712597 21.7477692C197.033148 18.8936593 192.738365 16.8996703 187.268017 16.8996703 186.691554 16.8996703 186.103612 16.9226154 185.520133 16.9672308 183.936133 17.088967 182.123206 17.4137033 180.121206 17.9277363 181.018104 16.1479011 181.693409 14.5050989 182.126075 13.035022 183.841438 7.2072967 182.819872 1.78397802 179.750075.419065934L179.33909.262593407 179.260336.238692308C179.197206.221483516 178.977206.162527473 178.857641.136714286 178.436452.0458901099 178.001872 0 177.56538 0 173.503351 0 169.385206 3.97554945 167.772829 9.45304396 166.401177 14.1131209 166.982742 20.017011 167.451438 23.1216044L167.592684 23.9648352 168.375119 23.6088681C168.774626 23.4272198 169.200916 23.2372857 169.648249 23.040978 170.993757 22.4507802 172.33193 21.8997802 173.624191 21.4032747 174.959177 20.8905165 176.25367 20.4341648 177.493003 20.038044 176.856597 21.1257033 176.14909 22.2567033 175.37622 23.4176593 174.619293 24.5534396 173.803061 25.7166264 172.949206 26.875033 172.6648 27.2615934 172.389641 27.6287143 172.134568 27.9658791L171.54822 28.6813187 172.420568 28.9885275C175.045264 29.9133407 180.144162 31.465 184.802742 31.465L184.803061 31.465C185.299177 31.465 185.783496 31.4468352 186.243583 31.4117802 192.811061 30.9079451 197.896249 27.0659231 197.820046 22.6655714 197.817496 22.5228022 197.814626 22.3443407 197.778278 22.1760769" mask="url(#simplefly-wordpress-logo-b)"/>
    <path fill="#FFF" d="M173.143539,29.1867791 L172.67867,29.0545264 C172.191481,28.9012407 171.695046,28.7364824 171.203713,28.5653505 C170.625974,28.3649 170.065771,28.1590319 169.538409,27.9534824 C169.261017,27.8451308 168.995104,27.7380538 168.738119,27.6316143 L168.453713,27.5137022 L168.337655,27.1790868 C168.266554,26.9241418 168.195771,26.6596363 168.126264,26.3862077 L168.04751,26.080911 C167.936235,25.6516473 167.821452,25.2070868 167.719423,24.7370319 C167.34638,23.0107352 167.357539,22.7640758 167.815394,22.534944 L168.105539,23.1152626 L168.751191,23.0518451 C168.763626,23.1579659 168.90009,24.0547352 168.988409,24.4632846 C169.084699,24.9078451 169.196293,25.3393396 169.304061,25.7561747 L169.383452,26.0652956 C169.425539,26.2284604 169.467626,26.3887571 169.509713,26.5455484 C169.677104,26.6137462 169.841626,26.6787571 170.010293,26.7447242 C170.522351,26.9442187 171.067249,27.1446692 171.630003,27.3403396 C172.109858,27.5070099 172.593858,27.6673066 173.069249,27.8177242 L172.876032,28.4289549 L173.416148,28.7935264 L173.143539,29.1867791 Z" mask="url(#simplefly-wordpress-logo-b)"/>
    <path fill="#FFF" d="M1.048,81.712 L1.048,70.84 L2.088,70.84 C2.32266784,70.84 2.47199968,70.9493322 2.536,71.168 L2.672,72.024 C2.84266752,71.8266657 3.02399904,71.6453342 3.216,71.48 C3.40800096,71.3146658 3.61466556,71.1733339 3.836,71.056 C4.05733444,70.9386661 4.2946654,70.8480003 4.548,70.784 C4.8013346,70.7199997 5.07199856,70.688 5.36,70.688 C5.81866896,70.688 6.2346648,70.7799991 6.608,70.964 C6.9813352,71.1480009 7.301332,71.4159982 7.568,71.768 C7.834668,72.1200018 8.0413326,72.5559974 8.188,73.076 C8.3346674,73.5960026 8.408,74.1919966 8.408,74.864 C8.408,75.4666697 8.32666748,76.0279974 8.164,76.548 C8.00133252,77.0680026 7.76800152,77.5186648 7.464,77.9 C7.15999848,78.2813352 6.79200216,78.5799989 6.36,78.796 C5.92799784,79.0120011 5.44000272,79.12 4.896,79.12 C4.4159976,79.12 4.00800168,79.0440008 3.672,78.892 C3.33599832,78.7399992 3.034668,78.5280014 2.768,78.256 L2.768,81.712 L1.048,81.712 Z M4.784,72.072 C4.34133112,72.072 3.96266824,72.1666657 3.648,72.356 C3.33333176,72.5453343 3.04000136,72.8159982 2.768,73.168 L2.768,76.952 C3.0080012,77.2613349 3.27066524,77.478666 3.556,77.604 C3.84133476,77.729334 4.1573316,77.792 4.504,77.792 C5.17600336,77.792 5.69999812,77.5466691 6.076,77.056 C6.45200188,76.5653309 6.64,75.8346715 6.64,74.864 C6.64,74.3626642 6.59733376,73.9346684 6.512,73.58 C6.42666624,73.2253316 6.3040008,72.9360011 6.144,72.712 C5.9839992,72.4879989 5.78933448,72.3253338 5.56,72.224 C5.33066552,72.1226662 5.07200144,72.072 4.784,72.072 Z M13.808,70.712 C14.4106697,70.712 14.9559976,70.8106657 15.444,71.008 C15.9320024,71.2053343 16.3479983,71.4853315 16.692,71.848 C17.0360017,72.2106685 17.3013324,72.6506641 17.488,73.168 C17.6746676,73.6853359 17.768,74.2666634 17.768,74.912 C17.768,75.5573366 17.6746676,76.1386641 17.488,76.656 C17.3013324,77.1733359 17.0360017,77.6146648 16.692,77.98 C16.3479983,78.3453352 15.9320024,78.6266657 15.444,78.824 C14.9559976,79.0213343 14.4106697,79.12 13.808,79.12 C13.199997,79.12 12.6520024,79.0213343 12.164,78.824 C11.6759976,78.6266657 11.2586684,78.3453352 10.912,77.98 C10.5653316,77.6146648 10.2986676,77.1733359 10.112,76.656 C9.9253324,76.1386641 9.832,75.5573366 9.832,74.912 C9.832,74.2666634 9.9253324,73.6853359 10.112,73.168 C10.2986676,72.6506641 10.5653316,72.2106685 10.912,71.848 C11.2586684,71.4853315 11.6759976,71.2053343 12.164,71.008 C12.6520024,70.8106657 13.199997,70.712 13.808,70.712 Z M13.808,77.776 C14.5440037,77.776 15.0919982,77.5293358 15.452,77.036 C15.8120018,76.5426642 15.992,75.8373379 15.992,74.92 C15.992,74.0026621 15.8120018,73.2946692 15.452,72.796 C15.0919982,72.2973308 14.5440037,72.048 13.808,72.048 C13.0613296,72.048 12.5066685,72.2973308 12.144,72.796 C11.7813315,73.2946692 11.6,74.0026621 11.6,74.92 C11.6,75.8373379 11.7813315,76.5426642 12.144,77.036 C12.5066685,77.5293358 13.0613296,77.776 13.808,77.776 Z M18.64,70.84 L20,70.84 C20.133334,70.84 20.2439996,70.873333 20.332,70.94 C20.4200004,71.006667 20.4773332,71.0853329 20.504,71.176 L21.864,75.928 C21.9173336,76.1466678 21.9639998,76.3586656 22.004,76.564 C22.0440002,76.7693344 22.0799998,76.9733323 22.112,77.176 C22.1653336,76.9733323 22.2199997,76.7693344 22.276,76.564 C22.3320003,76.3586656 22.3946663,76.1466678 22.464,75.928 L23.992,71.152 C24.0186668,71.0559995 24.0733329,70.9773336 24.156,70.916 C24.2386671,70.8546664 24.3386661,70.824 24.456,70.824 L25.208,70.824 C25.3306673,70.824 25.4346662,70.8546664 25.52,70.916 C25.6053338,70.9773336 25.6613332,71.0559995 25.688,71.152 L27.176,75.928 C27.234667,76.1466678 27.293333,76.359999 27.352,76.568 C27.410667,76.776001 27.4639998,76.9813323 27.512,77.184 C27.5760003,76.7786646 27.6666661,76.3600022 27.784,75.928 L29.168,71.176 C29.2000002,71.0799995 29.2586662,71.0000003 29.344,70.936 C29.4293338,70.8719997 29.5333327,70.84 29.656,70.84 L30.952,70.84 L28.336,79 L26.968,79 C26.8079992,79 26.6960003,78.896001 26.632,78.688 L25.008,73.608 C24.9653331,73.4639993 24.9266668,73.321334 24.892,73.18 C24.8573332,73.038666 24.8266668,72.8960007 24.8,72.752 C24.741333,73.0400014 24.6693338,73.3279986 24.584,73.616 L22.936,78.688 C22.877333,78.896001 22.752001,79 22.56,79 L21.256,79 L18.64,70.84 Z M35.688,70.712 C36.1893358,70.712 36.6533312,70.7933325 37.08,70.956 C37.5066688,71.1186675 37.8746651,71.3573318 38.184,71.672 C38.4933349,71.9866682 38.7346658,72.3719977 38.908,72.828 C39.0813342,73.2840023 39.168,73.8026638 39.168,74.384 C39.168,74.650668 39.138667,74.8293329 39.08,74.92 C39.021333,75.0106671 38.9146674,75.056 38.76,75.056 L33.52,75.056 C33.5413334,75.5200023 33.6133327,75.9213316 33.736,76.26 C33.8586673,76.5986684 34.0226656,76.8799989 34.228,77.104 C34.4333344,77.3280011 34.6786652,77.4946661 34.964,77.604 C35.2493348,77.7133339 35.5679982,77.768 35.92,77.768 C36.2560017,77.768 36.5466654,77.7293337 36.792,77.652 C37.0373346,77.5746663 37.2506658,77.4893338 37.432,77.396 C37.6133342,77.3026662 37.7679994,77.2173337 37.896,77.14 C38.0240006,77.0626663 38.1413328,77.024 38.248,77.024 C38.3866674,77.024 38.493333,77.0773328 38.568,77.184 L39.056,77.816 C38.8533323,78.0560012 38.6240013,78.2586658 38.368,78.424 C38.1119987,78.5893342 37.8400014,78.7239995 37.552,78.828 C37.2639986,78.9320005 36.9680015,79.0066664 36.664,79.052 C36.3599985,79.0973336 36.0640014,79.12 35.776,79.12 C35.2106638,79.12 34.6866691,79.0253343 34.204,78.836 C33.7213309,78.6466657 33.3026684,78.3680018 32.948,78 C32.5933316,77.6319982 32.316001,77.1760027 32.116,76.632 C31.915999,76.0879973 31.816,75.4613369 31.816,74.752 C31.816,74.1866638 31.9053324,73.6586691 32.084,73.168 C32.2626676,72.6773309 32.518665,72.2506685 32.852,71.888 C33.185335,71.5253315 33.5906643,71.2386677 34.068,71.028 C34.5453357,70.8173323 35.0853303,70.712 35.688,70.712 Z M35.72,71.96 C35.0959969,71.96 34.6053351,72.1386649 34.248,72.496 C33.8906649,72.8533351 33.6640005,73.3546634 33.568,74 L37.624,74 C37.624,73.7119986 37.5826671,73.4440012 37.5,73.196 C37.4173329,72.9479988 37.2960008,72.7320009 37.136,72.548 C36.9759992,72.3639991 36.7773345,72.2200005 36.54,72.116 C36.3026655,72.0119995 36.0293349,71.96 35.72,71.96 Z M40.968,79 L40.968,70.84 L41.968,70.84 C42.1493343,70.84 42.2746663,70.873333 42.344,70.94 C42.4133337,71.006667 42.4613332,71.1226658 42.488,71.288 L42.584,72.352 C42.8453347,71.8346641 43.1573315,71.4280015 43.52,71.132 C43.8826685,70.8359985 44.3173308,70.688 44.824,70.688 C45.0000009,70.688 45.1653326,70.7079998 45.32,70.748 C45.4746675,70.7880002 45.6133327,70.8479996 45.736,70.928 L45.616,72.224 C45.5946666,72.3146671 45.5613336,72.3773332 45.516,72.412 C45.4706665,72.4466668 45.4106671,72.464 45.336,72.464 C45.2559996,72.464 45.1413341,72.4493335 44.992,72.42 C44.8426659,72.3906665 44.6853342,72.376 44.52,72.376 C44.2799988,72.376 44.0666676,72.4106663 43.88,72.48 C43.6933324,72.5493337 43.5280007,72.650666 43.384,72.784 C43.2399993,72.917334 43.1120006,73.079999 43,73.272 C42.8879995,73.464001 42.7840005,73.6826654 42.688,73.928 L42.688,79 L40.968,79 Z M50.208,70.712 C50.7093359,70.712 51.1733312,70.7933325 51.6,70.956 C52.0266688,71.1186675 52.3946651,71.3573318 52.704,71.672 C53.0133349,71.9866682 53.2546658,72.3719977 53.428,72.828 C53.6013342,73.2840023 53.688,73.8026638 53.688,74.384 C53.688,74.650668 53.658667,74.8293329 53.6,74.92 C53.5413331,75.0106671 53.4346675,75.056 53.28,75.056 L48.04,75.056 C48.0613335,75.5200023 48.1333327,75.9213316 48.256,76.26 C48.3786673,76.5986684 48.5426657,76.8799989 48.748,77.104 C48.9533344,77.3280011 49.1986653,77.4946661 49.484,77.604 C49.7693348,77.7133339 50.0879983,77.768 50.44,77.768 C50.7760017,77.768 51.0666655,77.7293337 51.312,77.652 C51.5573346,77.5746663 51.7706658,77.4893338 51.952,77.396 C52.1333343,77.3026662 52.2879994,77.2173337 52.416,77.14 C52.5440007,77.0626663 52.6613328,77.024 52.768,77.024 C52.9066674,77.024 53.013333,77.0773328 53.088,77.184 L53.576,77.816 C53.3733323,78.0560012 53.1440013,78.2586658 52.888,78.424 C52.6319987,78.5893342 52.3600015,78.7239995 52.072,78.828 C51.7839986,78.9320005 51.4880015,79.0066664 51.184,79.052 C50.8799985,79.0973336 50.5840015,79.12 50.296,79.12 C49.7306639,79.12 49.2066691,79.0253343 48.724,78.836 C48.2413309,78.6466657 47.8226685,78.3680018 47.468,78 C47.1133316,77.6319982 46.836001,77.1760027 46.636,76.632 C46.435999,76.0879973 46.336,75.4613369 46.336,74.752 C46.336,74.1866638 46.4253325,73.6586691 46.604,73.168 C46.7826676,72.6773309 47.038665,72.2506685 47.372,71.888 C47.705335,71.5253315 48.1106643,71.2386677 48.588,71.028 C49.0653357,70.8173323 49.6053303,70.712 50.208,70.712 Z M50.24,71.96 C49.6159969,71.96 49.1253351,72.1386649 48.768,72.496 C48.4106649,72.8533351 48.1840005,73.3546634 48.088,74 L52.144,74 C52.144,73.7119986 52.1026671,73.4440012 52.02,73.196 C51.9373329,72.9479988 51.8160008,72.7320009 51.656,72.548 C51.4959992,72.3639991 51.2973345,72.2200005 51.06,72.116 C50.8226655,72.0119995 50.5493349,71.96 50.24,71.96 Z M61.376,79 C61.1466655,79 61.0000003,78.8906678 60.936,78.672 L60.784,77.792 C60.6133325,77.9893343 60.432001,78.1693325 60.24,78.332 C60.0479991,78.4946675 59.8413345,78.6346661 59.62,78.752 C59.3986656,78.8693339 59.1626679,78.9599997 58.912,79.024 C58.6613321,79.0880003 58.3920015,79.12 58.104,79.12 C57.6453311,79.12 57.2293352,79.0280009 56.856,78.844 C56.4826648,78.6599991 56.162668,78.3920018 55.896,78.04 C55.629332,77.6879982 55.4226674,77.2520026 55.276,76.732 C55.1293326,76.2119974 55.056,75.6160034 55.056,74.944 C55.056,74.335997 55.1373325,73.7733359 55.3,73.256 C55.4626675,72.7386641 55.6959985,72.2893352 56,71.908 C56.3040015,71.5266648 56.6733312,71.2280011 57.108,71.012 C57.5426689,70.7959989 58.0293307,70.688 58.568,70.688 C59.0480024,70.688 59.4559983,70.7639992 59.792,70.916 C60.1280017,71.0680008 60.429332,71.2799986 60.696,71.552 L60.696,67.16 L62.416,67.16 L62.416,79 L61.376,79 Z M58.68,77.736 C59.1173355,77.736 59.4933318,77.6426676 59.808,77.456 C60.1226683,77.2693324 60.4186653,77.0000018 60.696,76.648 L60.696,72.848 C60.4506655,72.5439985 60.1853348,72.329334 59.9,72.204 C59.6146653,72.078666 59.3040017,72.016 58.968,72.016 C58.2959967,72.016 57.7706686,72.2626642 57.392,72.756 C57.0133315,73.2493358 56.824,73.9786618 56.824,74.944 C56.824,75.4453358 56.8666663,75.8733316 56.952,76.228 C57.0373338,76.5826684 57.1599992,76.8719989 57.32,77.096 C57.4800008,77.3200011 57.6746655,77.4826662 57.904,77.584 C58.1333345,77.6853338 58.3919986,77.736 58.68,77.736 Z M68.896,79 L68.896,67.16 L70.616,67.16 L70.616,71.92 C70.9520017,71.5519982 71.3279979,71.2586678 71.744,71.04 C72.1600021,70.8213322 72.634664,70.712 73.168,70.712 C73.6426691,70.712 74.0706648,70.8039991 74.452,70.988 C74.8333353,71.1720009 75.157332,71.4373316 75.424,71.784 C75.690668,72.1306684 75.8959993,72.5506642 76.04,73.044 C76.1840007,73.5373358 76.256,74.0933302 76.256,74.712 C76.256,75.3733366 76.1746675,75.974664 76.012,76.516 C75.8493325,77.057336 75.6160015,77.5213314 75.312,77.908 C75.0079985,78.2946686 74.6400022,78.5933323 74.208,78.804 C73.7759979,79.0146677 73.293336,79.12 72.76,79.12 C72.4986654,79.12 72.2613344,79.0946669 72.048,79.044 C71.8346656,78.9933331 71.6373343,78.9213338 71.456,78.828 C71.2746658,78.7346662 71.1080008,78.6200007 70.956,78.484 C70.8039993,78.3479993 70.6586674,78.1946675 70.52,78.024 L70.448,78.656 C70.4213332,78.7786673 70.3733337,78.8666664 70.304,78.92 C70.2346663,78.9733336 70.1386673,79 70.016,79 L68.896,79 Z M72.592,72.072 C72.1706646,72.072 71.8040016,72.1666657 71.492,72.356 C71.1799985,72.5453343 70.8880014,72.8159982 70.616,73.168 L70.616,76.952 C70.8560012,77.2613349 71.1186653,77.478666 71.404,77.604 C71.6893348,77.729334 71.9999983,77.792 72.336,77.792 C73.0133367,77.792 73.5413315,77.5466691 73.92,77.056 C74.2986686,76.5653309 74.488,75.8053385 74.488,74.776 C74.488,73.8373286 74.3240017,73.1520022 73.996,72.72 C73.6679984,72.2879978 73.2000031,72.072 72.592,72.072 Z M80.64,81.32 C80.5813331,81.4426673 80.5106671,81.5386663 80.428,81.608 C80.3453329,81.6773337 80.2186675,81.712 80.048,81.712 L78.776,81.712 L80.28,78.448 L76.952,70.84 L78.448,70.84 C78.5920007,70.84 78.7026663,70.873333 78.78,70.94 C78.8573337,71.006667 78.9146665,71.0853329 78.952,71.176 L80.896,75.808 C80.9920005,76.074668 81.0719997,76.341332 81.136,76.608 C81.1786669,76.4693326 81.2226665,76.333334 81.268,76.2 C81.3133336,76.066666 81.3626664,75.933334 81.416,75.8 L83.28,71.176 C83.3173335,71.0799995 83.3799996,71.0000003 83.468,70.936 C83.5560005,70.8719997 83.6533328,70.84 83.76,70.84 L85.136,70.84 L80.64,81.32 Z M89.064,70.84 L90.424,70.84 C90.557334,70.84 90.6679996,70.873333 90.756,70.94 C90.8440005,71.006667 90.9013332,71.0853329 90.928,71.176 L92.288,75.928 C92.3413336,76.1466678 92.3879998,76.3586656 92.428,76.564 C92.4680002,76.7693344 92.5039999,76.9733323 92.536,77.176 C92.5893336,76.9733323 92.6439998,76.7693344 92.7,76.564 C92.7560003,76.3586656 92.8186664,76.1466678 92.888,75.928 L94.416,71.152 C94.4426668,71.0559995 94.497333,70.9773336 94.58,70.916 C94.6626671,70.8546664 94.7626661,70.824 94.88,70.824 L95.632,70.824 C95.7546673,70.824 95.8586663,70.8546664 95.944,70.916 C96.0293338,70.9773336 96.0853332,71.0559995 96.112,71.152 L97.6,75.928 C97.658667,76.1466678 97.7173331,76.359999 97.776,76.568 C97.834667,76.776001 97.8879998,76.9813323 97.936,77.184 C98.0000004,76.7786646 98.0906661,76.3600022 98.208,75.928 L99.592,71.176 C99.6240002,71.0799995 99.6826663,71.0000003 99.768,70.936 C99.8533338,70.8719997 99.9573328,70.84 100.08,70.84 L101.376,70.84 L98.76,79 L97.392,79 C97.2319992,79 97.1200004,78.896001 97.056,78.688 L95.432,73.608 C95.3893332,73.4639993 95.3506669,73.321334 95.316,73.18 C95.2813332,73.038666 95.2506668,72.8960007 95.224,72.752 C95.1653331,73.0400014 95.0933338,73.3279986 95.008,73.616 L93.36,78.688 C93.3013331,78.896001 93.176001,79 92.984,79 L91.68,79 L89.064,70.84 Z M106.224,70.712 C106.82667,70.712 107.371998,70.8106657 107.86,71.008 C108.348002,71.2053343 108.763998,71.4853315 109.108,71.848 C109.452002,72.2106685 109.717332,72.6506641 109.904,73.168 C110.090668,73.6853359 110.184,74.2666634 110.184,74.912 C110.184,75.5573366 110.090668,76.1386641 109.904,76.656 C109.717332,77.1733359 109.452002,77.6146648 109.108,77.98 C108.763998,78.3453352 108.348002,78.6266657 107.86,78.824 C107.371998,79.0213343 106.82667,79.12 106.224,79.12 C105.615997,79.12 105.068002,79.0213343 104.58,78.824 C104.091998,78.6266657 103.674668,78.3453352 103.328,77.98 C102.981332,77.6146648 102.714668,77.1733359 102.528,76.656 C102.341332,76.1386641 102.248,75.5573366 102.248,74.912 C102.248,74.2666634 102.341332,73.6853359 102.528,73.168 C102.714668,72.6506641 102.981332,72.2106685 103.328,71.848 C103.674668,71.4853315 104.091998,71.2053343 104.58,71.008 C105.068002,70.8106657 105.615997,70.712 106.224,70.712 Z M106.224,77.776 C106.960004,77.776 107.507998,77.5293358 107.868,77.036 C108.228002,76.5426642 108.408,75.8373379 108.408,74.92 C108.408,74.0026621 108.228002,73.2946692 107.868,72.796 C107.507998,72.2973308 106.960004,72.048 106.224,72.048 C105.47733,72.048 104.922669,72.2973308 104.56,72.796 C104.197332,73.2946692 104.016,74.0026621 104.016,74.92 C104.016,75.8373379 104.197332,76.5426642 104.56,77.036 C104.922669,77.5293358 105.47733,77.776 106.224,77.776 Z M112.032,79 L112.032,70.84 L113.032,70.84 C113.213334,70.84 113.338666,70.873333 113.408,70.94 C113.477334,71.006667 113.525333,71.1226658 113.552,71.288 L113.648,72.352 C113.909335,71.8346641 114.221332,71.4280015 114.584,71.132 C114.946669,70.8359985 115.381331,70.688 115.888,70.688 C116.064001,70.688 116.229333,70.7079998 116.384,70.748 C116.538667,70.7880002 116.677333,70.8479996 116.8,70.928 L116.68,72.224 C116.658667,72.3146671 116.625334,72.3773332 116.58,72.412 C116.534666,72.4466668 116.474667,72.464 116.4,72.464 C116.32,72.464 116.205334,72.4493335 116.056,72.42 C115.906666,72.3906665 115.749334,72.376 115.584,72.376 C115.343999,72.376 115.130668,72.4106663 114.944,72.48 C114.757332,72.5493337 114.592001,72.650666 114.448,72.784 C114.303999,72.917334 114.176001,73.079999 114.064,73.272 C113.951999,73.464001 113.848001,73.6826654 113.752,73.928 L113.752,79 L112.032,79 Z M123.76,79 C123.530666,79 123.384,78.8906678 123.32,78.672 L123.168,77.792 C122.997333,77.9893343 122.816001,78.1693325 122.624,78.332 C122.431999,78.4946675 122.225334,78.6346661 122.004,78.752 C121.782666,78.8693339 121.546668,78.9599997 121.296,79.024 C121.045332,79.0880003 120.776001,79.12 120.488,79.12 C120.029331,79.12 119.613335,79.0280009 119.24,78.844 C118.866665,78.6599991 118.546668,78.3920018 118.28,78.04 C118.013332,77.6879982 117.806667,77.2520026 117.66,76.732 C117.513333,76.2119974 117.44,75.6160034 117.44,74.944 C117.44,74.335997 117.521333,73.7733359 117.684,73.256 C117.846668,72.7386641 118.079999,72.2893352 118.384,71.908 C118.688002,71.5266648 119.057331,71.2280011 119.492,71.012 C119.926669,70.7959989 120.413331,70.688 120.952,70.688 C121.432002,70.688 121.839998,70.7639992 122.176,70.916 C122.512002,71.0680008 122.813332,71.2799986 123.08,71.552 L123.08,67.16 L124.8,67.16 L124.8,79 L123.76,79 Z M121.064,77.736 C121.501336,77.736 121.877332,77.6426676 122.192,77.456 C122.506668,77.2693324 122.802665,77.0000018 123.08,76.648 L123.08,72.848 C122.834665,72.5439985 122.569335,72.329334 122.284,72.204 C121.998665,72.078666 121.688002,72.016 121.352,72.016 C120.679997,72.016 120.154669,72.2626642 119.776,72.756 C119.397331,73.2493358 119.208,73.9786618 119.208,74.944 C119.208,75.4453358 119.250666,75.8733316 119.336,76.228 C119.421334,76.5826684 119.543999,76.8719989 119.704,77.096 C119.864001,77.3200011 120.058666,77.4826662 120.288,77.584 C120.517335,77.6853338 120.775999,77.736 121.064,77.736 Z M127.096,81.712 L127.096,70.84 L128.136,70.84 C128.370668,70.84 128.52,70.9493322 128.584,71.168 L128.72,72.024 C128.890668,71.8266657 129.071999,71.6453342 129.264,71.48 C129.456001,71.3146658 129.662666,71.1733339 129.884,71.056 C130.105334,70.9386661 130.342665,70.8480003 130.596,70.784 C130.849335,70.7199997 131.119999,70.688 131.408,70.688 C131.866669,70.688 132.282665,70.7799991 132.656,70.964 C133.029335,71.1480009 133.349332,71.4159982 133.616,71.768 C133.882668,72.1200018 134.089333,72.5559974 134.236,73.076 C134.382667,73.5960026 134.456,74.1919966 134.456,74.864 C134.456,75.4666697 134.374668,76.0279974 134.212,76.548 C134.049333,77.0680026 133.816002,77.5186648 133.512,77.9 C133.207999,78.2813352 132.840002,78.5799989 132.408,78.796 C131.975998,79.0120011 131.488003,79.12 130.944,79.12 C130.463998,79.12 130.056002,79.0440008 129.72,78.892 C129.383998,78.7399992 129.082668,78.5280014 128.816,78.256 L128.816,81.712 L127.096,81.712 Z M130.832,72.072 C130.389331,72.072 130.010668,72.1666657 129.696,72.356 C129.381332,72.5453343 129.088001,72.8159982 128.816,73.168 L128.816,76.952 C129.056001,77.2613349 129.318665,77.478666 129.604,77.604 C129.889335,77.729334 130.205332,77.792 130.552,77.792 C131.224003,77.792 131.747998,77.5466691 132.124,77.056 C132.500002,76.5653309 132.688,75.8346715 132.688,74.864 C132.688,74.3626642 132.645334,73.9346684 132.56,73.58 C132.474666,73.2253316 132.352001,72.9360011 132.192,72.712 C132.031999,72.4879989 131.837335,72.3253338 131.608,72.224 C131.378666,72.1226662 131.120001,72.072 130.832,72.072 Z M136.328,79 L136.328,70.84 L137.328,70.84 C137.509334,70.84 137.634666,70.873333 137.704,70.94 C137.773334,71.006667 137.821333,71.1226658 137.848,71.288 L137.944,72.352 C138.205335,71.8346641 138.517332,71.4280015 138.88,71.132 C139.242669,70.8359985 139.677331,70.688 140.184,70.688 C140.360001,70.688 140.525333,70.7079998 140.68,70.748 C140.834667,70.7880002 140.973333,70.8479996 141.096,70.928 L140.976,72.224 C140.954667,72.3146671 140.921334,72.3773332 140.876,72.412 C140.830666,72.4466668 140.770667,72.464 140.696,72.464 C140.616,72.464 140.501334,72.4493335 140.352,72.42 C140.202666,72.3906665 140.045334,72.376 139.88,72.376 C139.639999,72.376 139.426668,72.4106663 139.24,72.48 C139.053332,72.5493337 138.888001,72.650666 138.744,72.784 C138.599999,72.917334 138.472001,73.079999 138.36,73.272 C138.247999,73.464001 138.144001,73.6826654 138.048,73.928 L138.048,79 L136.328,79 Z M145.568,70.712 C146.069336,70.712 146.533331,70.7933325 146.96,70.956 C147.386669,71.1186675 147.754665,71.3573318 148.064,71.672 C148.373335,71.9866682 148.614666,72.3719977 148.788,72.828 C148.961334,73.2840023 149.048,73.8026638 149.048,74.384 C149.048,74.650668 149.018667,74.8293329 148.96,74.92 C148.901333,75.0106671 148.794667,75.056 148.64,75.056 L143.4,75.056 C143.421333,75.5200023 143.493333,75.9213316 143.616,76.26 C143.738667,76.5986684 143.902666,76.8799989 144.108,77.104 C144.313334,77.3280011 144.558665,77.4946661 144.844,77.604 C145.129335,77.7133339 145.447998,77.768 145.8,77.768 C146.136002,77.768 146.426665,77.7293337 146.672,77.652 C146.917335,77.5746663 147.130666,77.4893338 147.312,77.396 C147.493334,77.3026662 147.647999,77.2173337 147.776,77.14 C147.904001,77.0626663 148.021333,77.024 148.128,77.024 C148.266667,77.024 148.373333,77.0773328 148.448,77.184 L148.936,77.816 C148.733332,78.0560012 148.504001,78.2586658 148.248,78.424 C147.991999,78.5893342 147.720001,78.7239995 147.432,78.828 C147.143999,78.9320005 146.848002,79.0066664 146.544,79.052 C146.239999,79.0973336 145.944001,79.12 145.656,79.12 C145.090664,79.12 144.566669,79.0253343 144.084,78.836 C143.601331,78.6466657 143.182668,78.3680018 142.828,78 C142.473332,77.6319982 142.196001,77.1760027 141.996,76.632 C141.795999,76.0879973 141.696,75.4613369 141.696,74.752 C141.696,74.1866638 141.785332,73.6586691 141.964,73.168 C142.142668,72.6773309 142.398665,72.2506685 142.732,71.888 C143.065335,71.5253315 143.470664,71.2386677 143.948,71.028 C144.425336,70.8173323 144.96533,70.712 145.568,70.712 Z M145.6,71.96 C144.975997,71.96 144.485335,72.1386649 144.128,72.496 C143.770665,72.8533351 143.544001,73.3546634 143.448,74 L147.504,74 C147.504,73.7119986 147.462667,73.4440012 147.38,73.196 C147.297333,72.9479988 147.176001,72.7320009 147.016,72.548 C146.855999,72.3639991 146.657335,72.2200005 146.42,72.116 C146.182666,72.0119995 145.909335,71.96 145.6,71.96 Z M155.72,72.32 C155.677333,72.394667 155.629334,72.4479998 155.576,72.48 C155.522666,72.5120002 155.456,72.528 155.376,72.528 C155.285333,72.528 155.186667,72.5000003 155.08,72.444 C154.973333,72.3879997 154.848001,72.3253337 154.704,72.256 C154.559999,72.1866663 154.390668,72.1240003 154.196,72.068 C154.001332,72.0119997 153.773335,71.984 153.512,71.984 C153.298666,71.984 153.105334,72.0093331 152.932,72.06 C152.758666,72.1106669 152.612001,72.1826662 152.492,72.276 C152.371999,72.3693338 152.28,72.478666 152.216,72.604 C152.152,72.729334 152.12,72.8639993 152.12,73.008 C152.12,73.200001 152.178666,73.3599994 152.296,73.488 C152.413334,73.6160006 152.567999,73.7266662 152.76,73.82 C152.952001,73.9133338 153.170665,73.997333 153.416,74.072 C153.661335,74.146667 153.911999,74.2266662 154.168,74.312 C154.424001,74.3973338 154.674665,74.4959994 154.92,74.608 C155.165335,74.7200006 155.383999,74.8573325 155.576,75.02 C155.768001,75.1826675 155.922666,75.3799988 156.04,75.612 C156.157334,75.8440012 156.216,76.1253317 156.216,76.456 C156.216,76.8400019 156.146667,77.194665 156.008,77.52 C155.869333,77.845335 155.666668,78.1279988 155.4,78.368 C155.133332,78.6080012 154.801335,78.794666 154.404,78.928 C154.006665,79.061334 153.552003,79.128 153.04,79.128 C152.757332,79.128 152.484001,79.1026669 152.22,79.052 C151.955999,79.0013331 151.705335,78.9320004 151.468,78.844 C151.230666,78.7559996 151.009334,78.6506673 150.804,78.528 C150.598666,78.4053327 150.416001,78.2720007 150.256,78.128 L150.656,77.472 C150.704,77.3919996 150.764,77.3293336 150.836,77.284 C150.908,77.2386664 150.997333,77.216 151.104,77.216 C151.216001,77.216 151.326666,77.2519996 151.436,77.324 C151.545334,77.3960004 151.673333,77.4746662 151.82,77.56 C151.966667,77.6453338 152.143999,77.7239996 152.352,77.796 C152.560001,77.8680004 152.818665,77.904 153.128,77.904 C153.384001,77.904 153.605332,77.8733336 153.792,77.812 C153.978668,77.7506664 154.133333,77.6666672 154.256,77.56 C154.378667,77.4533328 154.469333,77.3320007 154.528,77.196 C154.586667,77.0599993 154.616,76.9146674 154.616,76.76 C154.616,76.551999 154.557334,76.381334 154.44,76.248 C154.322666,76.114666 154.166668,76.0000005 153.972,75.904 C153.777332,75.8079995 153.556001,75.722667 153.308,75.648 C153.059999,75.573333 152.808001,75.4933338 152.552,75.408 C152.295999,75.3226662 152.044001,75.2240006 151.796,75.112 C151.547999,74.9999994 151.326668,74.8573342 151.132,74.684 C150.937332,74.5106658 150.781334,74.3000012 150.664,74.052 C150.546666,73.8039988 150.488,73.5013351 150.488,73.144 C150.488,72.818665 150.553333,72.5093348 150.684,72.216 C150.814667,71.9226652 151.006665,71.6640011 151.26,71.44 C151.513335,71.2159989 151.825332,71.0386673 152.196,70.908 C152.566669,70.7773327 152.994664,70.712 153.48,70.712 C154.029336,70.712 154.527998,70.7999991 154.976,70.976 C155.424002,71.1520009 155.799999,71.3919985 156.104,71.696 L155.72,72.32 Z M162.904,72.32 C162.861333,72.394667 162.813334,72.4479998 162.76,72.48 C162.706666,72.5120002 162.64,72.528 162.56,72.528 C162.469333,72.528 162.370667,72.5000003 162.264,72.444 C162.157333,72.3879997 162.032001,72.3253337 161.888,72.256 C161.743999,72.1866663 161.574668,72.1240003 161.38,72.068 C161.185332,72.0119997 160.957335,71.984 160.696,71.984 C160.482666,71.984 160.289334,72.0093331 160.116,72.06 C159.942666,72.1106669 159.796001,72.1826662 159.676,72.276 C159.555999,72.3693338 159.464,72.478666 159.4,72.604 C159.336,72.729334 159.304,72.8639993 159.304,73.008 C159.304,73.200001 159.362666,73.3599994 159.48,73.488 C159.597334,73.6160006 159.751999,73.7266662 159.944,73.82 C160.136001,73.9133338 160.354665,73.997333 160.6,74.072 C160.845335,74.146667 161.095999,74.2266662 161.352,74.312 C161.608001,74.3973338 161.858665,74.4959994 162.104,74.608 C162.349335,74.7200006 162.567999,74.8573325 162.76,75.02 C162.952001,75.1826675 163.106666,75.3799988 163.224,75.612 C163.341334,75.8440012 163.4,76.1253317 163.4,76.456 C163.4,76.8400019 163.330667,77.194665 163.192,77.52 C163.053333,77.845335 162.850668,78.1279988 162.584,78.368 C162.317332,78.6080012 161.985335,78.794666 161.588,78.928 C161.190665,79.061334 160.736003,79.128 160.224,79.128 C159.941332,79.128 159.668001,79.1026669 159.404,79.052 C159.139999,79.0013331 158.889335,78.9320004 158.652,78.844 C158.414666,78.7559996 158.193334,78.6506673 157.988,78.528 C157.782666,78.4053327 157.600001,78.2720007 157.44,78.128 L157.84,77.472 C157.888,77.3919996 157.948,77.3293336 158.02,77.284 C158.092,77.2386664 158.181333,77.216 158.288,77.216 C158.400001,77.216 158.510666,77.2519996 158.62,77.324 C158.729334,77.3960004 158.857333,77.4746662 159.004,77.56 C159.150667,77.6453338 159.327999,77.7239996 159.536,77.796 C159.744001,77.8680004 160.002665,77.904 160.312,77.904 C160.568001,77.904 160.789332,77.8733336 160.976,77.812 C161.162668,77.7506664 161.317333,77.6666672 161.44,77.56 C161.562667,77.4533328 161.653333,77.3320007 161.712,77.196 C161.770667,77.0599993 161.8,76.9146674 161.8,76.76 C161.8,76.551999 161.741334,76.381334 161.624,76.248 C161.506666,76.114666 161.350668,76.0000005 161.156,75.904 C160.961332,75.8079995 160.740001,75.722667 160.492,75.648 C160.243999,75.573333 159.992001,75.4933338 159.736,75.408 C159.479999,75.3226662 159.228001,75.2240006 158.98,75.112 C158.731999,74.9999994 158.510668,74.8573342 158.316,74.684 C158.121332,74.5106658 157.965334,74.3000012 157.848,74.052 C157.730666,73.8039988 157.672,73.5013351 157.672,73.144 C157.672,72.818665 157.737333,72.5093348 157.868,72.216 C157.998667,71.9226652 158.190665,71.6640011 158.444,71.44 C158.697335,71.2159989 159.009332,71.0386673 159.38,70.908 C159.750669,70.7773327 160.178664,70.712 160.664,70.712 C161.213336,70.712 161.711998,70.7999991 162.16,70.976 C162.608002,71.1520009 162.983999,71.3919985 163.288,71.696 L162.904,72.32 Z"/>
  </g>
</svg>
